<svg width="19" height="19" viewBox="0 0 19 19" fill="none" xmlns="http://www.w3.org/2000/svg">
<path d="M16.8007 14.0118H15.359C15.2606 14.0118 15.1683 14.0548 15.1068 14.1307C14.9632 14.305 14.8094 14.4732 14.6474 14.6331C13.9848 15.2964 13.1999 15.825 12.3362 16.1897C11.4414 16.5676 10.4796 16.7615 9.50817 16.7598C8.52585 16.7598 7.57428 16.567 6.68014 16.1897C5.81641 15.825 5.03153 15.2964 4.36891 14.6331C3.70511 13.9721 3.1758 13.1886 2.81032 12.326C2.43092 11.4319 2.2402 10.4824 2.2402 9.50003C2.2402 8.51771 2.43298 7.5682 2.81032 6.67406C3.17536 5.81068 3.70036 5.03343 4.36891 4.36693C5.03747 3.70042 5.81471 3.17542 6.68014 2.81038C7.57428 2.43304 8.52585 2.24027 9.50817 2.24027C10.4905 2.24027 11.4421 2.43099 12.3362 2.81038C13.2016 3.17542 13.9789 3.70042 14.6474 4.36693C14.8094 4.52894 14.9612 4.6971 15.1068 4.86937C15.1683 4.94525 15.2627 4.98831 15.359 4.98831H16.8007C16.9299 4.98831 17.0099 4.84476 16.9382 4.73607C15.3652 2.29154 12.6131 0.673469 9.48561 0.681672C4.57194 0.693976 0.63239 4.68275 0.681609 9.59027C0.730827 14.4199 4.66423 18.3184 9.50817 18.3184C12.6274 18.3184 15.3673 16.7024 16.9382 14.264C17.0079 14.1553 16.9299 14.0118 16.8007 14.0118ZM18.6239 9.37083L15.7138 7.07396C15.6051 6.98782 15.4472 7.06575 15.4472 7.20316V8.76175H9.00778C8.91755 8.76175 8.84372 8.83558 8.84372 8.92581V10.0743C8.84372 10.1645 8.91755 10.2383 9.00778 10.2383H15.4472V11.7969C15.4472 11.9343 15.6072 12.0122 15.7138 11.9261L18.6239 9.62923C18.6435 9.61388 18.6594 9.59427 18.6703 9.57189C18.6812 9.54951 18.6868 9.52493 18.6868 9.50003C18.6868 9.47513 18.6812 9.45056 18.6703 9.42817C18.6594 9.40579 18.6435 9.38618 18.6239 9.37083Z" fill="#D9D9D9"/>
</svg>
